<?xml version="1.0" encoding="utf-8" standalone="no"?>
<!DOCTYPE svg PUBLIC "-//W3C//DTD SVG 1.1//EN"
  "http://www.w3.org/Graphics/SVG/1.1/DTD/svg11.dtd">
<svg preserveAspectRatio="xMidYMid meet" xmlns:xlink="http://www.w3.org/1999/xlink" width="576pt" height="494.490566pt" viewBox="0 0 576 494.490566" xmlns="http://www.w3.org/2000/svg" version="1.1">
 <metadata>
  <rdf:RDF xmlns:dc="http://purl.org/dc/elements/1.1/" xmlns:cc="http://creativecommons.org/ns#" xmlns:rdf="http://www.w3.org/1999/02/22-rdf-syntax-ns#">
   <cc:Work>
    <dc:type rdf:resource="http://purl.org/dc/dcmitype/StillImage"/>
    <dc:date>1980-01-01T00:00:00+00:00</dc:date>
    <dc:format>image/svg+xml</dc:format>
    <dc:creator>
     <cc:Agent>
      <dc:title>Matplotlib v3.10.1, https://matplotlib.org/</dc:title>
     </cc:Agent>
    </dc:creator>
   </cc:Work>
  </rdf:RDF>
 </metadata>
 <defs>
  <style type="text/css">*{stroke-linejoin: round; stroke-linecap: butt}</style>
 </defs>
 <g id="figure_1">
  <g id="patch_1">
   <path d="M 0 494.490566 
L 576 494.490566 
L 576 0 
L 0 0 
z
" style="fill: #ffffff"/>
  </g>
  <g id="axes_1">
   <g id="patch_2">
    <path d="M 73.44 440.096604 
L 516.96 440.096604 
L 516.96 59.338868 
L 73.44 59.338868 
z
" style="fill: #ffffff"/>
   </g>
   <g id="patch_3">
    <path d="M 466.05283 96.298868 
L 480 110.246038 
L 480 389.189434 
L 466.05283 403.136604 
L 124.34717 403.136604 
L 110.4 389.189434 
L 110.4 110.246038 
L 124.34717 96.298868 
L 466.05283 96.298868 
z
" clip-path="url(#p9d4417c20e)" style="fill: none; stroke: #000000; stroke-width: 0.5; stroke-linejoin: miter"/>
   </g>
   <g id="patch_4">
    <path d="M 153.984906 138.489057 
C 157.128913 138.489057 160.144574 139.738184 162.367723 141.961333 
C 164.590872 144.184483 165.84 147.200143 165.84 150.344151 
C 165.84 153.488159 164.590872 156.503819 162.367723 158.726969 
C 160.144574 160.950118 157.128913 162.199245 153.984906 162.199245 
C 150.840898 162.199245 147.825237 160.950118 145.602088 158.726969 
C 143.378939 156.503819 142.129811 153.488159 142.129811 150.344151 
C 142.129811 147.200143 143.378939 144.184483 145.602088 141.961333 
C 147.825237 139.738184 150.840898 138.489057 153.984906 138.489057 
L 153.984906 138.489057 
z
" clip-path="url(#p9d4417c20e)" style="fill: none; stroke: #000000; stroke-width: 0.5; stroke-linejoin: miter"/>
   </g>
   <g id="patch_5">
    <path d="M 153.984906 337.236226 
C 157.128913 337.236226 160.144574 338.485354 162.367723 340.708503 
C 164.590872 342.931652 165.84 345.947313 165.84 349.091321 
C 165.84 352.235329 164.590872 355.250989 162.367723 357.474138 
C 160.144574 359.697288 157.128913 360.946415 153.984906 360.946415 
C 150.840898 360.946415 147.825237 359.697288 145.602088 357.474138 
C 143.378939 355.250989 142.129811 352.235329 142.129811 349.091321 
C 142.129811 345.947313 143.378939 342.931652 145.602088 340.708503 
C 147.825237 338.485354 150.840898 337.236226 153.984906 337.236226 
L 153.984906 337.236226 
z
" clip-path="url(#p9d4417c20e)" style="fill: none; stroke: #000000; stroke-width: 0.5; stroke-linejoin: miter"/>
   </g>
   <g id="patch_6">
    <path d="M 436.415094 337.236226 
C 439.559102 337.236226 442.574763 338.485354 444.797912 340.708503 
C 447.021061 342.931652 448.270189 345.947313 448.270189 349.091321 
C 448.270189 352.235329 447.021061 355.250989 444.797912 357.474138 
C 442.574763 359.697288 439.559102 360.946415 436.415094 360.946415 
C 433.271087 360.946415 430.255426 359.697288 428.032277 357.474138 
C 425.809128 355.250989 424.56 352.235329 424.56 349.091321 
C 424.56 345.947313 425.809128 342.931652 428.032277 340.708503 
C 430.255426 338.485354 433.271087 337.236226 436.415094 337.236226 
L 436.415094 337.236226 
z
" clip-path="url(#p9d4417c20e)" style="fill: none; stroke: #000000; stroke-width: 0.5; stroke-linejoin: miter"/>
   </g>
   <g id="patch_7">
    <path d="M 436.415094 138.489057 
C 439.559102 138.489057 442.574763 139.738184 444.797912 141.961333 
C 447.021061 144.184483 448.270189 147.200143 448.270189 150.344151 
C 448.270189 153.488159 447.021061 156.503819 444.797912 158.726969 
C 442.574763 160.950118 439.559102 162.199245 436.415094 162.199245 
C 433.271087 162.199245 430.255426 160.950118 428.032277 158.726969 
C 425.809128 156.503819 424.56 153.488159 424.56 150.344151 
C 424.56 147.200143 425.809128 144.184483 428.032277 141.961333 
C 430.255426 139.738184 433.271087 138.489057 436.415094 138.489057 
L 436.415094 138.489057 
z
" clip-path="url(#p9d4417c20e)" style="fill: none; stroke: #000000; stroke-width: 0.5; stroke-linejoin: miter"/>
   </g>
   <g id="matplotlib.axis_1"/>
   <g id="matplotlib.axis_2"/>
  </g>
 </g>
 <defs>
  <clipPath id="p9d4417c20e">
   <rect x="73.44" y="59.338868" width="443.52" height="380.757736"/>
  </clipPath>
 </defs>

  <metadata>
    <dimensions>
      <width>127.20000000000005</width>
      <height>109.20000000000002</height>
      <minX>-29.271128609265887</minX>
      <minY>-68.11775239061765</minY>
      <maxX>97.92887139073416</maxX>
      <maxY>41.082247609382364</maxY>
      <units>mm</units>
    </dimensions>
  </metadata>
</svg>
