<?xml version="1.0" encoding="utf-8" standalone="no"?>
<!DOCTYPE svg PUBLIC "-//W3C//DTD SVG 1.1//EN"
  "http://www.w3.org/Graphics/SVG/1.1/DTD/svg11.dtd">
<svg preserveAspectRatio="xMidYMid meet" xmlns:xlink="http://www.w3.org/1999/xlink" width="576pt" height="353.51351pt" viewBox="0 0 576 353.51351" xmlns="http://www.w3.org/2000/svg" version="1.1">
 <metadata>
  <rdf:RDF xmlns:dc="http://purl.org/dc/elements/1.1/" xmlns:cc="http://creativecommons.org/ns#" xmlns:rdf="http://www.w3.org/1999/02/22-rdf-syntax-ns#">
   <cc:Work>
    <dc:type rdf:resource="http://purl.org/dc/dcmitype/StillImage"/>
    <dc:date>1980-01-01T00:00:00+00:00</dc:date>
    <dc:format>image/svg+xml</dc:format>
    <dc:creator>
     <cc:Agent>
      <dc:title>Matplotlib v3.10.1, https://matplotlib.org/</dc:title>
     </cc:Agent>
    </dc:creator>
   </cc:Work>
  </rdf:RDF>
 </metadata>
 <defs>
  <style type="text/css">*{stroke-linejoin: round; stroke-linecap: butt}</style>
 </defs>
 <g id="figure_1">
  <g id="patch_1">
   <path d="M 0 353.51351 
L 576 353.51351 
L 576 0 
L 0 0 
z
" style="fill: #ffffff"/>
  </g>
  <g id="axes_1">
   <g id="patch_2">
    <path d="M 73.44 314.627024 
L 516.96 314.627024 
L 516.96 42.421621 
L 73.44 42.421621 
z
" style="fill: #ffffff"/>
   </g>
   <g id="patch_3">
    <path d="M 412.572973 93.865945 
C 414.692304 93.865945 416.725118 94.707965 418.223712 96.206558 
C 419.722305 97.705151 420.564324 99.737965 420.564324 101.857297 
C 420.564324 103.976628 419.722305 106.009442 418.223712 107.508035 
C 416.725118 109.006629 414.692304 109.848648 412.572973 109.848648 
C 410.453642 109.848648 408.420828 109.006629 406.922235 107.508035 
C 405.423641 106.009442 404.581622 103.976628 404.581622 101.857297 
C 404.581622 99.737965 405.423641 97.705151 406.922235 96.206558 
C 408.420828 94.707965 410.453642 93.865945 412.572973 93.865945 
L 412.572973 93.865945 
z
" clip-path="url(#p81f4ff9193)" style="fill: none; stroke: #000000; stroke-width: 0.5; stroke-linejoin: miter"/>
   </g>
   <g id="patch_4">
    <path d="M 165.34054 277.667024 
C 160.401944 277.667024 155.572592 276.202056 151.4663 273.458319 
C 147.360007 270.714582 144.15844 266.813462 142.268522 262.250794 
C 140.378603 257.688126 139.883944 252.665769 140.847416 247.822066 
C 141.810888 242.978364 144.189867 238.527608 147.681982 235.035493 
C 151.174096 231.543378 155.624852 229.1644 160.468555 228.200927 
C 165.312257 227.237455 170.334615 227.732114 174.897283 229.622033 
C 179.459951 231.511952 183.361071 234.713519 186.104808 238.819811 
C 188.848545 242.926104 190.313512 247.755455 190.313512 252.694051 
" clip-path="url(#p81f4ff9193)" style="fill: none; stroke: #000000; stroke-width: 0.5; stroke-linejoin: miter"/>
   </g>
   <g id="patch_5">
    <path d="M 365.124325 94.365405 
C 366.10678 94.365405 367.083883 94.510344 368.024034 94.795536 
C 368.964185 95.080728 369.85714 95.503064 370.674021 96.048887 
C 371.490903 96.59471 372.22281 97.258072 372.846073 98.01752 
C 373.469336 98.776968 373.977163 99.624227 374.353133 100.531897 
C 374.729102 101.439567 374.969116 102.397758 375.065414 103.375482 
C 375.161711 104.353207 375.113242 105.339811 374.921575 106.303388 
C 374.729907 107.266966 374.39713 108.197017 373.934003 109.063465 
C 373.470877 109.929913 372.882449 110.723317 372.187749 111.418017 
C 371.493048 112.112718 370.699644 112.701146 369.833196 113.164272 
C 368.966748 113.627399 368.036697 113.960176 367.073119 114.151844 
C 366.109542 114.343511 365.122938 114.39198 364.145213 114.295682 
C 363.167489 114.199385 362.209298 113.959371 361.301628 113.583401 
C 360.393958 113.207432 359.546699 112.699605 358.787251 112.076342 
C 358.027803 111.453079 357.364441 110.721172 356.818618 109.90429 
C 356.272795 109.087409 355.850459 108.194454 355.565267 107.254303 
C 355.280076 106.314152 355.135136 105.337049 355.135136 104.354594 
" clip-path="url(#p81f4ff9193)" style="fill: none; stroke: #000000; stroke-width: 0.5; stroke-linejoin: miter"/>
   </g>
   <g id="patch_6">
    <path d="M 150.356756 91.368648 
C 152.476087 91.368648 154.508901 92.210667 156.007495 93.709261 
C 157.506088 95.207854 158.348107 97.240668 158.348107 99.359999 
C 158.348107 101.47933 157.506088 103.512145 156.007495 105.010738 
C 154.508901 106.509331 152.476087 107.351351 150.356756 107.351351 
C 148.237425 107.351351 146.204611 106.509331 144.706018 105.010738 
C 143.207424 103.512145 142.365405 101.47933 142.365405 99.359999 
C 142.365405 97.240668 143.207424 95.207854 144.706018 93.709261 
C 146.204611 92.210667 148.237425 91.368648 150.356756 91.368648 
L 150.356756 91.368648 
z
" clip-path="url(#p81f4ff9193)" style="fill: none; stroke: #000000; stroke-width: 0.5; stroke-linejoin: miter"/>
   </g>
   <g id="patch_7">
    <path d="M 160.345945 252.694051 
C 160.345945 257.632648 158.880978 262.461999 156.137241 266.568292 
C 153.393504 270.674584 149.492384 273.876151 144.929716 275.76607 
C 140.367048 277.655989 135.34469 278.150648 130.500987 277.187175 
C 125.657285 276.223703 121.206529 273.844725 117.714414 270.35261 
C 114.222299 266.860495 111.843321 262.409739 110.879849 257.566037 
C 109.916376 252.722334 110.411035 247.699977 112.300954 243.137309 
C 114.190873 238.574641 117.39244 234.673521 121.498732 231.929784 
C 125.605025 229.186047 130.434376 227.721079 135.372973 227.721079 
" clip-path="url(#p81f4ff9193)" style="fill: none; stroke: #000000; stroke-width: 0.5; stroke-linejoin: miter"/>
   </g>
   <g id="patch_8">
    <path d="M 150.356756 146.309188 
C 156.847208 146.309188 163.072701 148.887872 167.662143 153.477314 
C 172.251586 158.066756 174.830269 164.29225 174.830269 170.782701 
C 174.830269 177.273153 172.251586 183.498646 167.662143 188.088088 
C 163.072701 192.677531 156.847208 195.256214 150.356756 195.256214 
C 143.866305 195.256214 137.640811 192.677531 133.051369 188.088088 
C 128.461927 183.498646 125.883243 177.273153 125.883243 170.782701 
C 125.883243 164.29225 128.461927 158.066756 133.051369 153.477314 
C 137.640811 148.887872 143.866305 146.309188 150.356756 146.309188 
L 150.356756 146.309188 
z
" clip-path="url(#p81f4ff9193)" style="fill: none; stroke: #000000; stroke-width: 0.5; stroke-linejoin: miter"/>
   </g>
   <g id="patch_9">
    <path d="M 450.032432 104.354594 
C 450.032432 103.372139 450.177372 102.395037 450.462563 101.454886 
C 450.747755 100.514735 451.170091 99.62178 451.715914 98.804898 
C 452.261737 97.988016 452.925099 97.25611 453.684547 96.632847 
C 454.443995 96.009584 455.291254 95.501756 456.198924 95.125787 
C 457.106594 94.749817 458.064785 94.509803 459.04251 94.413506 
C 460.020234 94.317208 461.006838 94.365677 461.970415 94.557345 
C 462.933993 94.749012 463.864044 95.08179 464.730492 95.544916 
C 465.596941 96.008042 466.390344 96.59647 467.085045 97.291171 
C 467.779745 97.985872 468.368173 98.779275 468.8313 99.645723 
C 469.294426 100.512171 469.627203 101.442222 469.818871 102.4058 
C 470.010538 103.369378 470.059007 104.355981 469.96271 105.333706 
C 469.866412 106.31143 469.626398 107.269621 469.250429 108.177291 
C 468.874459 109.084962 468.366632 109.93222 467.743369 110.691669 
C 467.120106 111.451117 466.388199 112.114478 465.571317 112.660301 
C 464.754436 113.206124 463.861481 113.62846 462.92133 113.913652 
C 461.981179 114.198844 461.004076 114.343783 460.021621 114.343783 
" clip-path="url(#p81f4ff9193)" style="fill: none; stroke: #000000; stroke-width: 0.5; stroke-linejoin: miter"/>
   </g>
   <g id="matplotlib.axis_1"/>
   <g id="matplotlib.axis_2"/>
   <g id="line2d_1">
    <path d="M 160.345945 218.730809 
L 165.340539 218.730809 
" clip-path="url(#p81f4ff9193)" style="fill: none; stroke: #000000; stroke-width: 0.5; stroke-linecap: square"/>
   </g>
   <g id="line2d_2">
    <path d="M 140.367567 232.715673 
L 140.367567 218.730809 
" clip-path="url(#p81f4ff9193)" style="fill: none; stroke: #000000; stroke-width: 0.5; stroke-linecap: square"/>
   </g>
   <g id="line2d_3">
    <path d="M 385.102703 259.187027 
L 440.043243 259.187027 
" clip-path="url(#p81f4ff9193)" style="fill: none; stroke: #000000; stroke-width: 0.5; stroke-linecap: square"/>
   </g>
   <g id="line2d_4">
    <path d="M 165.34054 277.667024 
L 135.372973 277.667024 
" clip-path="url(#p81f4ff9193)" style="fill: none; stroke: #000000; stroke-width: 0.5; stroke-linecap: square"/>
   </g>
   <g id="line2d_5">
    <path d="M 385.102703 245.707351 
L 350.140541 245.707351 
" clip-path="url(#p81f4ff9193)" style="fill: none; stroke: #000000; stroke-width: 0.5; stroke-linecap: square"/>
   </g>
   <g id="line2d_6">
    <path d="M 140.367567 232.715673 
L 160.345945 232.715673 
" clip-path="url(#p81f4ff9193)" style="fill: none; stroke: #000000; stroke-width: 0.5; stroke-linecap: square"/>
   </g>
   <g id="line2d_7">
    <path d="M 135.372973 240.207565 
L 165.340539 240.207565 
" clip-path="url(#p81f4ff9193)" style="fill: none; stroke: #000000; stroke-width: 0.5; stroke-linecap: square"/>
   </g>
   <g id="line2d_8">
    <path d="M 470.01081 227.72681 
L 475.005404 227.72681 
" clip-path="url(#p81f4ff9193)" style="fill: none; stroke: #000000; stroke-width: 0.5; stroke-linecap: square"/>
   </g>
   <g id="line2d_9">
    <path d="M 135.372973 240.207565 
L 135.372973 218.730809 
" clip-path="url(#p81f4ff9193)" style="fill: none; stroke: #000000; stroke-width: 0.5; stroke-linecap: square"/>
   </g>
   <g id="line2d_10">
    <path d="M 190.313512 79.381621 
L 190.313512 252.694051 
" clip-path="url(#p81f4ff9193)" style="fill: none; stroke: #000000; stroke-width: 0.5; stroke-linecap: square"/>
   </g>
   <g id="line2d_11">
    <path d="M 160.345945 232.715673 
L 160.345945 218.730809 
" clip-path="url(#p81f4ff9193)" style="fill: none; stroke: #000000; stroke-width: 0.5; stroke-linecap: square"/>
   </g>
   <g id="line2d_12">
    <path d="M 470.01081 227.72681 
L 471.149928 227.72681 
" clip-path="url(#p81f4ff9193)" style="fill: none; stroke: #000000; stroke-width: 0.5; stroke-linecap: square"/>
   </g>
   <g id="line2d_13">
    <path d="M 385.102703 259.187027 
L 385.102703 245.707351 
" clip-path="url(#p81f4ff9193)" style="fill: none; stroke: #000000; stroke-width: 0.5; stroke-linecap: square"/>
   </g>
   <g id="line2d_14">
    <path d="M 440.043243 259.187027 
L 440.043243 245.707351 
" clip-path="url(#p81f4ff9193)" style="fill: none; stroke: #000000; stroke-width: 0.5; stroke-linecap: square"/>
   </g>
   <g id="line2d_15">
    <path d="M 110.4 252.694051 
L 110.4 79.381621 
" clip-path="url(#p81f4ff9193)" style="fill: none; stroke: #000000; stroke-width: 0.5; stroke-linecap: square"/>
   </g>
   <g id="line2d_16">
    <path d="M 355.135136 227.72681 
L 355.135136 104.354594 
" clip-path="url(#p81f4ff9193)" style="fill: none; stroke: #000000; stroke-width: 0.5; stroke-linecap: square"/>
   </g>
   <g id="line2d_17">
    <path d="M 110.4 79.381621 
L 190.313512 79.381621 
" clip-path="url(#p81f4ff9193)" style="fill: none; stroke: #000000; stroke-width: 0.5; stroke-linecap: square"/>
   </g>
   <g id="line2d_18">
    <path d="M 385.102703 79.381621 
L 385.102703 94.365405 
" clip-path="url(#p81f4ff9193)" style="fill: none; stroke: #000000; stroke-width: 0.5; stroke-linecap: square"/>
   </g>
   <g id="line2d_19">
    <path d="M 345.145946 245.707351 
L 362.495804 245.707351 
" clip-path="url(#p81f4ff9193)" style="fill: none; stroke: #000000; stroke-width: 0.5; stroke-linecap: square"/>
   </g>
   <g id="line2d_20">
    <path d="M 440.043243 79.381621 
L 385.102703 79.381621 
" clip-path="url(#p81f4ff9193)" style="fill: none; stroke: #000000; stroke-width: 0.5; stroke-linecap: square"/>
   </g>
   <g id="line2d_21">
    <path d="M 470.01081 227.72681 
L 470.01081 104.354594 
" clip-path="url(#p81f4ff9193)" style="fill: none; stroke: #000000; stroke-width: 0.5; stroke-linecap: square"/>
   </g>
   <g id="line2d_22">
    <path d="M 385.102703 79.381621 
L 385.102703 94.365405 
" clip-path="url(#p81f4ff9193)" style="fill: none; stroke: #000000; stroke-width: 0.5; stroke-linecap: square"/>
   </g>
   <g id="line2d_23">
    <path d="M 470.01081 227.72681 
L 480 227.72681 
" clip-path="url(#p81f4ff9193)" style="fill: none; stroke: #000000; stroke-width: 0.5; stroke-linecap: square"/>
   </g>
   <g id="line2d_24">
    <path d="M 365.124325 94.365405 
L 385.102703 94.365405 
" clip-path="url(#p81f4ff9193)" style="fill: none; stroke: #000000; stroke-width: 0.5; stroke-linecap: square"/>
   </g>
   <g id="line2d_25">
    <path d="M 480 227.72681 
L 480 245.707351 
" clip-path="url(#p81f4ff9193)" style="fill: none; stroke: #000000; stroke-width: 0.5; stroke-linecap: square"/>
   </g>
   <g id="line2d_26">
    <path d="M 480 245.707351 
L 462.650142 245.707351 
" clip-path="url(#p81f4ff9193)" style="fill: none; stroke: #000000; stroke-width: 0.5; stroke-linecap: square"/>
   </g>
   <g id="line2d_27">
    <path d="M 350.140541 227.72681 
L 355.135136 227.72681 
" clip-path="url(#p81f4ff9193)" style="fill: none; stroke: #000000; stroke-width: 0.5; stroke-linecap: square"/>
   </g>
   <g id="line2d_28">
    <path d="M 345.145946 227.72681 
L 345.145946 245.707351 
" clip-path="url(#p81f4ff9193)" style="fill: none; stroke: #000000; stroke-width: 0.5; stroke-linecap: square"/>
   </g>
   <g id="line2d_29">
    <path d="M 385.102703 245.707351 
L 385.102703 259.187027 
" clip-path="url(#p81f4ff9193)" style="fill: none; stroke: #000000; stroke-width: 0.5; stroke-linecap: square"/>
   </g>
   <g id="line2d_30">
    <path d="M 355.135136 227.72681 
L 345.145946 227.72681 
" clip-path="url(#p81f4ff9193)" style="fill: none; stroke: #000000; stroke-width: 0.5; stroke-linecap: square"/>
   </g>
   <g id="line2d_31">
    <path d="M 140.367567 218.730809 
L 135.372973 218.730809 
" clip-path="url(#p81f4ff9193)" style="fill: none; stroke: #000000; stroke-width: 0.5; stroke-linecap: square"/>
   </g>
   <g id="line2d_32">
    <path d="M 385.102703 245.707351 
L 350.140541 245.707351 
" clip-path="url(#p81f4ff9193)" style="fill: none; stroke: #000000; stroke-width: 0.5; stroke-linecap: square"/>
   </g>
   <g id="line2d_33">
    <path d="M 475.005404 245.707351 
L 440.043243 245.707351 
" clip-path="url(#p81f4ff9193)" style="fill: none; stroke: #000000; stroke-width: 0.5; stroke-linecap: square"/>
   </g>
   <g id="line2d_34">
    <path d="M 165.340539 240.207565 
L 165.340539 218.730809 
" clip-path="url(#p81f4ff9193)" style="fill: none; stroke: #000000; stroke-width: 0.5; stroke-linecap: square"/>
   </g>
   <g id="line2d_35">
    <path d="M 440.043243 94.365405 
L 440.043243 79.381621 
" clip-path="url(#p81f4ff9193)" style="fill: none; stroke: #000000; stroke-width: 0.5; stroke-linecap: square"/>
   </g>
   <g id="line2d_36">
    <path d="M 460.021621 94.365405 
L 440.043243 94.365405 
" clip-path="url(#p81f4ff9193)" style="fill: none; stroke: #000000; stroke-width: 0.5; stroke-linecap: square"/>
   </g>
  </g>
 </g>
 <defs>
  <clipPath id="p81f4ff9193">
   <rect x="73.44" y="42.421621" width="443.52" height="272.205403"/>
  </clipPath>
 </defs>

  <metadata>
    <dimensions>
      <width>88.80000112652777</width>
      <height>54.50000018775464</height>
      <minX>-7.400000093877315</minX>
      <minY>-7.400000093877316</minY>
      <maxX>81.40000103265047</maxX>
      <maxY>47.10000009387732</maxY>
      <units>mm</units>
    </dimensions>
  </metadata>
</svg>
